<?xml version="1.0" encoding="UTF-8"?>
<!DOCTYPE svg PUBLIC "-//W3C//DTD SVG 1.1//EN" "http://www.w3.org/Graphics/SVG/1.1/DTD/svg11.dtd">
<!-- Creator: CorelDRAW -->
<svg xmlns="http://www.w3.org/2000/svg" xml:space="preserve" width="100%" height="100%" version="1.1" style="shape-rendering:geometricPrecision; text-rendering:geometricPrecision; image-rendering:optimizeQuality; fill-rule:evenodd; clip-rule:evenodd"
viewBox="4500 4900 17500 6500"
 xmlns:xlink="http://www.w3.org/1999/xlink"
 xmlns:xodm="http://www.corel.com/coreldraw/odm/2003">
 <defs>
  <style type="text/css">
   <![CDATA[
    .fil0 {fill:#C9A227;fill-rule:nonzero}
    .fil2 {fill:#C9A227;fill-opacity:0.984314}
    .fil1 {fill:#C9A227;fill-opacity:0.988235}
   ]]>
  </style>
 </defs>
 <g id="Слой_x0020_1">
  <metadata id="CorelCorpID_0Corel-Layer"/>
  <g id="_1581325790640">
   <path class="fil0" d="M6198.79 9003.86c-533.62,0 -871.53,391.44 -868.18,915.03 1.67,373.04 224.15,697.56 677.48,859.82 15.06,6.69 31.79,-1.67 38.48,-15.05l68.59 -138.85c5.02,-13.38 -1.68,-28.43 -15.06,-35.12 -389.76,-140.52 -547.01,-424.9 -550.36,-670.8 -5.01,-429.91 240.89,-704.25 644.04,-704.25 401.47,0 628.97,260.95 628.97,602.21 0,205.75 -73.6,368.01 -180.66,368.01 -53.53,0 -63.56,-36.8 -65.24,-76.94l0 -615.6c0,-15.05 -13.38,-28.43 -28.44,-28.43l-97.02 0c-16.73,0 -31.78,11.7 -38.47,26.76l-10.04 31.78c-70.26,-53.53 -147.21,-71.93 -229.18,-71.93 -327.87,0 -428.23,262.63 -428.23,449.99 0,185.68 100.36,449.98 428.23,449.98 83.64,0 165.61,-23.42 235.87,-78.62 41.82,73.6 117.1,113.75 205.76,113.75 319.5,0 429.91,-322.85 429.91,-577.11 0,-456.69 -326.2,-804.63 -846.45,-804.63zm153.9 1062.24c-31.78,48.51 -86.98,88.65 -170.62,88.65 -184.01,0 -214.12,-187.35 -214.12,-252.59 0,-65.24 28.44,-255.94 214.12,-255.94 76.95,0 137.17,45.17 170.62,88.66l0 331.22zm1083.99 -792.91c-5.02,-15.06 -20.08,-25.1 -36.81,-25.1l-194.04 0c-13.39,0 -21.75,13.38 -15.06,25.1l433.26 948.48c5.02,10.03 15.05,16.73 26.76,16.73 11.72,0 21.75,-6.7 26.77,-16.73l240.88 -536.97 239.22 536.97c5.02,10.03 15.05,16.73 26.76,16.73 11.71,0 21.75,-6.7 26.77,-16.73l434.93 -948.48c5.01,-11.72 -3.35,-25.1 -15.06,-25.1l-194.04 0c-16.73,0 -31.79,10.04 -38.48,25.1l-217.46 505.18 -232.52 -531.95c-5.02,-11.71 -16.73,-20.08 -30.12,-20.08 -13.38,0 -25.09,8.37 -30.11,20.08l-232.51 531.95 -219.14 -505.18zm1319.85 950.15c16.72,0 30.11,-10.04 36.8,-25.09l75.27 -187.36 267.65 0 76.95 187.36c6.69,15.05 20.08,25.09 36.8,25.09l190.7 0c11.71,0 20.08,-13.38 15.06,-25.09l-424.89 -941.8c-5.02,-11.7 -16.73,-18.4 -28.44,-18.4 -11.71,0 -23.42,6.7 -28.44,18.4l-423.22 941.8c-6.69,11.71 1.67,25.09 15.06,25.09l190.7 0zm245.9 -541.99l70.26 172.3 -140.52 0 70.26 -172.3zm848.11 -162.26c3.35,-50.19 40.15,-65.24 90.34,-65.24 26.76,0 150.55,23.42 250.92,61.89 13.38,5.02 30.11,0 35.13,-15.05l65.24 -143.87c6.69,-13.38 0,-30.11 -13.38,-36.8 -160.6,-70.26 -282.71,-83.64 -336.24,-83.64 -185.68,0 -319.51,105.39 -319.51,287.72 0,200.74 163.94,259.29 304.45,302.79 100.37,30.11 179,56.87 179,120.44 -3.35,46.83 -66.92,75.27 -137.18,75.27 -81.96,0 -162.26,-21.75 -252.59,-65.24 -13.38,-6.69 -28.44,-1.67 -35.13,11.71l-68.59 135.5c-6.69,13.38 -1.67,30.11 11.71,36.8 118.78,63.57 224.16,93.68 352.97,93.68 212.45,0 356.31,-142.19 356.31,-296.09 0,-344.6 -475.08,-279.36 -483.45,-419.87zm941.8 369.69l100.36 0 137.18 311.14c5.01,15.06 20.07,25.09 36.8,25.09l192.37 0c11.71,0 20.08,-13.38 15.05,-23.42l-165.61 -349.61c100.38,-51.86 179,-153.9 179,-286.05 0,-130.48 -78.62,-317.84 -349.62,-317.84l-342.93 0c-15.05,0 -26.76,11.71 -26.76,26.76l0 923.4c0,15.05 11.71,26.76 26.76,26.76l170.63 0c15.06,0 26.77,-11.71 26.77,-26.76l0 -309.47zm0 -210.78l0 -222.48 153.89 0c95.35,0 118.77,71.93 118.77,110.41 0,33.45 -23.42,112.07 -113.75,112.07l-158.91 0zm1082.3 347.95c-128.8,0 -160.59,-130.48 -160.59,-178.99l0 -572.11c0,-15.05 -11.71,-26.76 -26.76,-26.76l-172.3 0c-15.06,0 -26.77,11.71 -26.77,26.76l0 572.11c0,163.93 100.37,388.09 386.42,388.09 287.73,0 388.09,-224.16 388.09,-388.09l0 -572.11c0,-15.05 -11.7,-26.76 -26.76,-26.76l-175.64 0c-15.06,0 -26.77,11.71 -26.77,26.76l0 572.11c0,48.51 -30.11,178.99 -158.92,178.99zm838.08 -506.86c3.35,-50.19 40.15,-65.24 90.33,-65.24 26.77,0 150.56,23.42 250.93,61.89 13.38,5.02 30.11,0 35.12,-15.05l65.24 -143.87c6.7,-13.38 0,-30.11 -13.38,-36.8 -160.59,-70.26 -282.7,-83.64 -336.23,-83.64 -185.69,0 -319.51,105.39 -319.51,287.72 0,200.74 163.94,259.29 304.45,302.79 100.37,30.11 178.99,56.87 178.99,120.44 -3.34,46.83 -66.91,75.27 -137.17,75.27 -81.96,0 -162.26,-21.75 -252.59,-65.24 -13.38,-6.69 -28.44,-1.67 -35.13,11.71l-68.59 135.5c-6.69,13.38 -1.67,30.11 11.71,36.8 118.77,63.57 224.16,93.68 352.97,93.68 212.44,0 356.31,-142.19 356.31,-296.09 0,-344.6 -475.08,-279.36 -483.45,-419.87zm1294.76 373.03l-1.67 102.04c-36.81,18.4 -88.67,31.79 -133.83,31.79 -219.14,0 -250.92,-217.46 -250.92,-289.4 0,-71.93 31.78,-289.4 250.92,-289.4 66.91,0 148.88,38.48 204.08,88.66 11.71,10.04 28.44,10.04 38.47,0l107.07 -108.73c10.03,-10.03 10.03,-26.76 0,-38.47 -95.35,-97.02 -200.74,-153.9 -349.62,-153.9 -366.35,0 -475.08,302.78 -475.08,501.84 0,205.76 108.73,503.52 475.08,503.52 143.86,0 250.92,-53.53 339.58,-130.48 13.38,-11.71 20.07,-28.44 20.07,-45.17l1.68 -344.6c0,-15.05 -11.71,-26.76 -26.77,-26.76l-352.96 0c-15.06,0 -26.76,11.71 -26.76,26.76l0 145.54c0,15.05 11.7,26.76 26.76,26.76l153.9 0zm1010.38 -48.51c15.05,0 26.76,-11.71 26.76,-26.76l0 -157.25c0,-15.05 -11.71,-26.76 -26.76,-26.76l-319.51 0 0 -175.65 416.53 0c15.05,0 26.76,-11.7 26.76,-26.76l0 -155.58c0,-15.05 -11.71,-26.76 -26.76,-26.76l-613.92 0c-15.06,0 -26.77,11.71 -26.77,26.76l0 923.4c0,15.05 11.71,26.76 26.77,26.76l613.92 0c15.05,0 26.76,-11.71 26.76,-26.76l0 -157.25c0,-15.05 -11.71,-26.76 -26.76,-26.76l-416.53 0 0 -170.63 319.51 0zm557.04 381.4c15.06,0 26.77,-11.71 26.77,-26.76l0 -493.48 530.28 515.23c6.69,8.36 16.73,11.7 26.76,11.7 10.04,0 16.73,-6.69 16.73,-15.05l0 -943.46c0,-15.06 -11.7,-26.77 -26.76,-26.77l-173.98 0c-15.05,0 -26.76,11.71 -26.76,26.77l0 471.73 -528.61 -503.52c-8.36,-8.36 -16.73,-11.71 -28.44,-11.71 -8.36,0 -15.05,6.69 -15.05,16.73l0 951.83c0,15.05 11.71,26.76 26.76,26.76l172.3 0zm1281.38 -1105.72c0,-15.06 -13.39,-28.44 -28.44,-28.44l-66.91 0c-18.4,0 -36.8,6.69 -50.19,16.73l-312.81 242.55c-11.71,10.04 -15.06,26.77 -6.7,40.15l66.91 105.39c8.37,13.38 25.1,16.73 40.15,10.03l130.49 -71.93 0 762.81c0,15.05 13.38,28.43 28.43,28.43l170.63 0c15.05,0 28.44,-13.38 28.44,-28.43l0 -1077.29z"/>
   <g>
    <path class="fil1" d="M10323.05 5317.39c54.76,-4.49 107.34,4.01 157.75,25.48 144.17,70.06 285.73,144.48 424.69,223.27 286.81,164.8 567.51,338.73 842.12,521.77 348.34,181.72 589.81,457.16 724.41,826.34 10.19,31.4 19.9,62.95 29.12,94.64 52.81,2.01 105.78,3.23 158.96,3.64 107.12,18.97 174.68,80.85 202.64,185.66 12.66,101.22 -22.53,180.9 -105.57,239.04 -13.08,8.16 -26.82,15.03 -41.26,20.63 -2.42,81.68 -3.23,163.4 -2.42,245.11 76.85,0 153.69,0 230.54,0 0,51.76 0,103.55 0,155.32 -1233.63,0 -2467.28,0 -3700.92,0 -0.79,-51.55 0.02,-102.93 2.43,-154.11 203.04,-1.21 406.09,-1.62 609.13,-1.21 0.52,-3.98 -0.29,-7.62 -2.42,-10.92 -71.77,-31.36 -130.42,-78.68 -175.95,-141.97 -14.02,-23.61 -25.76,-48.28 -35.19,-74.02 -55,-1.21 -110.01,-1.62 -165.02,-1.21 -0.41,-111.64 0,-223.28 1.21,-334.91 15.78,-69.16 58.25,-111.63 127.41,-127.41 27.53,-0.98 55.03,-2.2 82.51,-3.64 11.64,-45.42 26.2,-89.91 43.69,-133.47 -1.85,-1 -4.28,-1.4 -7.28,-1.22 -65.04,-57.75 -129.35,-116.4 -192.94,-175.94 -48.88,-59.92 -65.06,-127.88 -48.53,-203.86 46.65,-191.15 119.45,-371.54 218.41,-541.18 124.98,-212.45 279.09,-402.15 462.31,-569.09 47.62,-36.36 101.01,-58.6 160.17,-66.74zm9.71 155.32c25.62,-1.64 50.7,1.19 75.23,8.49 174.43,83.15 344.31,173.76 509.64,271.81 102.73,60.26 204.66,121.74 305.78,184.44 -472.3,-31.92 -871.52,122.19 -1197.64,462.31 -91.03,99.95 -167.88,209.97 -230.55,330.05 -50.95,-45.29 -101.1,-91.4 -150.47,-138.33 -11.73,-17.81 -15.77,-37.23 -12.13,-58.25 43.98,-179.33 112.74,-348.4 206.28,-507.2 108.48,-181.39 239.12,-346.01 391.93,-493.87 15.59,-15.59 32.57,-29.34 50.97,-41.25 16.49,-8.32 33.48,-14.39 50.96,-18.2zm725.62 613.99c392.06,-2.28 723.32,136.85 993.79,417.41 171.36,188.19 281.78,408.22 331.27,660.1 87.36,2.02 174.73,3.24 262.09,3.64 62.06,20.3 79.46,60.34 52.18,120.13 -15,19.43 -34.82,29.54 -59.46,30.33 -186.06,1.62 -372.1,1.62 -558.17,0 -31.13,-2 -53.39,-16.97 -66.74,-44.89 -47.44,-287.39 -192.64,-509.45 -435.61,-666.17 -227.33,-134.29 -469.21,-169.07 -725.63,-104.35 -280.4,82.22 -482.23,255.74 -605.49,520.56 -34.09,81.23 -58.36,165.36 -72.81,252.39 -13.98,25.39 -35.41,39.55 -64.31,42.46 -159.36,1.22 -318.72,1.62 -478.08,1.22 0,-50.96 0,-101.93 0,-152.89 58.28,0.63 116.53,-0.18 174.73,-2.43 78.61,-390.2 286.5,-689.1 623.69,-896.71 194.6,-112.76 404.12,-173.02 628.55,-180.8zm-26.69 541.18c284.37,-13.58 512.9,91.58 685.58,315.49 53.85,75.36 93.48,157.87 118.91,247.54 9.71,43.69 19.42,87.37 29.13,131.05 38,91.37 106.36,141.93 205.06,151.67 46.11,1.22 92.22,1.62 138.33,1.22 -4.29,76.72 -17.23,151.94 -38.83,225.69 -243.48,2.84 -486.99,3.23 -730.47,1.21 111.06,-130.84 143.01,-279.28 95.86,-445.32 -56.29,-159.83 -165.9,-262.97 -328.84,-309.42 -185.17,-38.31 -340.89,12.25 -467.16,151.68 -114.2,146.52 -137.66,306.69 -70.38,480.51 19.94,45.19 46.23,86.03 78.87,122.55 -243.49,1.63 -486.99,1.63 -730.48,0 -12.02,-41.06 -21.72,-82.73 -29.12,-124.98 -54.51,-14.77 -103.86,-39.44 -148.04,-74.02 -8.98,-8.17 -17.07,-17.07 -24.26,-26.69 100.3,-0.81 200.61,-1.62 300.92,-2.43 105.87,-10.44 175.84,-65.85 209.92,-166.24 42.5,-275.76 186.9,-477.59 433.19,-605.49 86.55,-40.64 177.15,-65.31 271.81,-74.02zm33.97 461.1c125.99,-5.57 223.47,43.77 292.44,148.04 52.01,96.7 56.05,195.39 12.13,296.07 -67.83,121.85 -171.78,178.08 -311.85,168.66 -132.22,-20.99 -219.18,-95.01 -260.88,-222.05 -28.36,-120.8 1.17,-224.75 88.58,-311.85 51.94,-44.41 111.8,-70.7 179.58,-78.87zm1300.79 385.87c63.9,0 127.82,0 191.72,0 0,76.04 0,152.09 0,228.12 -76.06,0.41 -152.09,0 -228.12,-1.22 19.02,-74.55 31.16,-150.19 36.4,-226.9z"/>
    <path class="fil2" d="M10388.58 5623.17c14.18,-0.85 27.94,1.18 41.25,6.07 57.82,28.5 115.25,57.62 172.31,87.36 25.24,21.53 34.54,48.63 27.91,81.3 -19.23,49.46 -54.42,66.85 -105.57,52.18 -57.81,-28.5 -115.25,-57.62 -172.3,-87.37 -36.82,-38.17 -38.44,-77.8 -4.86,-118.91 12.65,-9.56 26.4,-16.44 41.26,-20.63z"/>
    <path class="fil2" d="M9866.81 8011.18c86.57,-0.8 173.13,0 259.67,2.42 -37.16,29.1 -75.18,57.01 -114.06,83.73 10.44,6.72 21.77,11.57 33.97,14.56 60.73,11.36 120.99,9.34 180.8,-6.07 98.52,116.39 214.2,211.04 347.04,283.94 -20.65,51.86 -42.09,103.63 -64.31,155.32 30.88,-2.33 60,-10.82 87.37,-25.48 34.28,-19.73 65.83,-43.18 94.64,-70.38 2.69,-1.55 5.52,-2.77 8.5,-3.64 143.2,51.16 290.83,74.62 442.89,70.38 5.41,55.94 11.88,111.75 19.42,167.45 26.06,-16.75 46.69,-38.59 61.88,-65.53 20.68,-36.96 38.07,-75.37 52.18,-115.27 105.42,-19.22 206.54,-51.59 303.35,-97.07 39.22,-20.02 78.05,-40.65 116.49,-61.89 32.57,44.92 65.74,89.43 99.5,133.48 15.07,-32.18 22.35,-66.16 21.84,-101.93 -1.65,-35.87 -5.7,-71.47 -12.13,-106.78 0.8,-3.23 1.63,-6.48 2.43,-9.71 85.4,-72.03 159.03,-154.12 220.84,-246.32 122.97,-1.21 245.91,-1.63 368.88,-1.21 -1.63,30.36 -8.5,59.48 -20.63,87.36 -16.38,30.34 -33.37,60.26 -50.96,89.8 -58.76,-25.54 -117.41,-51.43 -175.95,-77.66 -51.96,75.35 -111.42,144.9 -178.37,208.7 5.26,66.16 -2.02,130.88 -21.84,194.15 -22.19,60.21 -59.8,108.33 -112.85,144.4 -23.93,14.39 -48.2,27.32 -72.81,38.83 -36.3,-48.73 -72.29,-97.66 -107.99,-146.83 -1.8,-2.59 -4.22,-4.22 -7.28,-4.85 -82.56,39.39 -168.31,70.14 -257.25,92.22 -21.63,42.47 -47.52,82.1 -77.65,118.91 -77.97,84.92 -174.64,119.72 -290.01,104.36 -7.28,-64.73 -14.56,-129.42 -21.84,-194.15 -92.55,-5.24 -183.15,-21.43 -271.81,-48.54 -68.01,51.79 -144.86,80.11 -230.55,84.94 -59.24,-2.06 -113.44,-19.46 -162.6,-52.17 -9.07,-6.63 -18.78,-12.31 -29.12,-16.99 -2.6,-1.8 -4.22,-4.22 -4.85,-7.28 26.17,-58.37 50.84,-117 74.02,-175.95 -74.15,-52.27 -143.32,-110.93 -207.5,-175.94 -86.38,8.93 -168.09,-6.43 -245.11,-46.11 -34.06,-20.31 -62.77,-46.6 -86.15,-78.87 -15.77,-26.7 -31.55,-53.39 -47.32,-80.09 25.12,-19.46 50.2,-38.88 75.23,-58.24z"/>
   </g>
  </g>
 </g>
</svg>
